<svg width="57" height="251" viewBox="0 0 57 251" fill="none" xmlns="http://www.w3.org/2000/svg">
<path d="M7.00002 198.195C7.00007 216.962 25.7863 224 34.3935 224C45.1525 224 44.9999 215.903 44.9999 214.541C44.9999 213.178 44.9999 140.984 44.9999 139.697C44.9999 138.411 43.55 126 36.0722 126C26.0762 126 7.00002 137.2 7.00002 149.308C7.00002 161.416 6.99997 175.265 7.00002 198.195Z" fill="#FACD01"/>
<path d="M54 248L54 3.00001" stroke="#FACD01" stroke-width="5" stroke-linecap="round"/>
<path d="M37 28L54 3" stroke="#FACD01" stroke-width="5" stroke-linecap="round"/>
<path d="M41.4926 105.042C41.4926 109.722 38.5369 111.517 34.1386 111.517L25.3771 111.517L25.3771 114.261L21.5418 114.261L21.3306 111.2L15.9823 110.637L15.9823 106.344L21.3306 106.344L21.3306 101.453L25.3771 101.453L25.3771 106.344L34.1386 106.344C36.3905 106.344 37.4461 105.394 37.4461 103.67C37.4461 103.001 37.1998 102.262 36.9887 101.699L40.7537 100.855C41.1056 101.911 41.4926 103.283 41.4926 105.042ZM41.4926 90.0356C41.4926 94.9969 37.6924 99.5008 31.1829 99.5008C24.6382 99.5008 20.838 94.9969 20.838 90.0356C20.838 85.1094 24.6382 80.6055 31.1829 80.6055C37.6924 80.6055 41.4926 85.1094 41.4926 90.0356ZM37.3054 90.0356C37.3054 87.3614 34.8775 85.8836 31.1829 85.8836C27.4531 85.8836 25.0604 87.3614 25.0604 90.0356C25.0604 92.745 27.4531 94.2228 31.1829 94.2228C34.8775 94.2228 37.3054 92.745 37.3054 90.0356ZM48.5651 76.2432L21.3306 76.2432L21.3306 72.056L23.3715 71.6338L23.3715 71.5282C21.9288 69.9096 20.838 67.8688 20.838 65.7576C20.838 60.9018 24.7789 58.0165 30.8662 58.0165C37.6221 58.0165 41.4926 62.063 41.4926 66.3909C41.4926 68.0799 40.7537 69.7689 39.3814 71.2467L42.5834 71.0708L48.5651 71.0708L48.5651 76.2432ZM37.235 67.5169C37.235 65.1594 35.1942 63.3297 30.9366 63.3297C27.1364 63.3297 25.0604 64.4909 25.0604 67.2354C25.0604 68.5373 25.729 69.7337 27.1013 71.0708L35.7924 71.0708C36.8832 69.8392 37.235 68.5725 37.235 67.5169Z" fill="#FACD01"/>
</svg>
