<svg width="56" height="528" viewBox="0 0 56 528" fill="none" xmlns="http://www.w3.org/2000/svg">
<path d="M53 525L53 3" stroke="#FACD01" stroke-width="5" stroke-linecap="round"/>
<path d="M7.00002 475.195C7.00007 493.962 25.7863 501 34.3935 501C45.1525 501 44.9999 492.903 44.9999 491.541C44.9999 490.178 44.9999 417.984 44.9999 416.697C44.9999 415.411 43.55 403 36.0722 403C26.0762 403 7.00002 414.2 7.00002 426.308C7.00002 438.416 6.99997 452.265 7.00002 475.195Z" fill="#FACD01"/>
<path d="M35.4926 383.59C35.4926 384.904 35.2346 386.241 34.7185 387.602C34.2024 388.939 33.5456 390.1 32.7481 391.085L29.4757 388.728C30.1325 387.86 30.6603 387.003 31.0591 386.159C31.4344 385.291 31.6221 384.388 31.6221 383.45C31.6221 382.464 31.4344 381.749 31.0591 381.303C30.6603 380.834 30.156 380.6 29.5461 380.6C29.0534 380.6 28.6429 380.799 28.3145 381.198C27.9627 381.596 27.6577 382.113 27.3997 382.746C27.1182 383.379 26.8484 384.036 26.5904 384.716C26.262 385.537 25.8632 386.358 25.394 387.179C24.9249 387.977 24.3267 388.646 23.5995 389.185C22.8489 389.725 21.9223 389.994 20.8198 389.994C19.6469 389.994 18.6147 389.689 17.7233 389.08C16.8085 388.47 16.093 387.625 15.5769 386.546C15.0609 385.444 14.8028 384.142 14.8028 382.64C14.8028 381.209 15.0491 379.943 15.5418 378.84C16.0344 377.714 16.5974 376.752 17.2307 375.955L20.3623 378.277C19.8463 378.981 19.4357 379.685 19.1308 380.388C18.8258 381.069 18.6734 381.772 18.6734 382.5C18.6734 383.414 18.8493 384.083 19.2012 384.505C19.553 384.927 20.0105 385.139 20.5735 385.139C21.0426 385.139 21.4414 384.963 21.7698 384.611C22.0748 384.259 22.3445 383.778 22.5791 383.168C22.8137 382.558 23.06 381.913 23.318 381.233C23.5526 380.576 23.8341 379.931 24.1625 379.298C24.4674 378.641 24.8428 378.043 25.2885 377.503C25.7342 376.964 26.2854 376.541 26.9422 376.236C27.5756 375.908 28.3497 375.744 29.2646 375.744C30.414 375.744 31.4696 376.049 32.4314 376.659C33.3697 377.245 34.1203 378.125 34.6833 379.298C35.2228 380.447 35.4926 381.878 35.4926 383.59ZM35.4926 363.213C35.4926 365.043 35.0821 366.697 34.2611 368.174C33.4401 369.652 32.2554 370.837 30.7072 371.728C29.159 372.596 27.3058 373.03 25.1477 373.03C23.5526 373.03 22.1217 372.784 20.8549 372.291C19.5882 371.775 18.5092 371.083 17.6178 370.215C16.7029 369.324 16.0109 368.339 15.5418 367.26C15.0491 366.157 14.8028 365.019 14.8028 363.847C14.8028 362.04 15.2133 360.527 16.0344 359.307C16.8319 358.088 17.9462 357.173 19.3771 356.563C20.7846 355.93 22.4032 355.613 24.2329 355.613C24.702 355.613 25.1595 355.636 25.6051 355.683C26.0274 355.73 26.3675 355.789 26.6256 355.859L26.6256 367.999C27.6812 367.858 28.5726 367.541 29.2998 367.049C30.0269 366.556 30.5782 365.923 30.9535 365.148C31.3054 364.374 31.4813 363.495 31.4813 362.509C31.4813 361.712 31.3758 360.961 31.1646 360.257C30.9301 359.554 30.5899 358.838 30.1442 358.111L33.311 356.352C33.9679 357.314 34.4957 358.393 34.8944 359.589C35.2932 360.785 35.4926 361.993 35.4926 363.213ZM23.1421 368.104L23.1421 360.046C21.8284 360.046 20.7846 360.351 20.0105 360.961C19.2129 361.548 18.8141 362.486 18.8141 363.776C18.8141 364.456 18.9783 365.102 19.3067 365.711C19.6117 366.321 20.0926 366.837 20.7494 367.26C21.3827 367.682 22.1803 367.963 23.1421 368.104ZM35.4926 342.979C35.4926 344.785 35.0821 346.415 34.2611 347.87C33.4401 349.324 32.2672 350.474 30.7424 351.318C29.1942 352.163 27.3293 352.585 25.1477 352.585C22.9661 352.585 21.113 352.127 19.5882 351.213C18.04 350.274 16.8554 349.043 16.0344 347.518C15.2133 345.97 14.8028 344.304 14.8028 342.521C14.8028 341.302 15.014 340.223 15.4362 339.284C15.835 338.346 16.3628 337.513 17.0196 336.786L20.292 339.249C19.8697 339.718 19.553 340.199 19.3419 340.692C19.1308 341.184 19.0252 341.7 19.0252 342.24C19.0252 343.249 19.2833 344.14 19.7993 344.914C20.292 345.665 20.9957 346.251 21.9105 346.673C22.8254 347.072 23.9045 347.272 25.1477 347.272C26.391 347.272 27.47 347.072 28.3849 346.673C29.2998 346.251 30.0152 345.677 30.5313 344.949C31.0239 344.199 31.2702 343.354 31.2702 342.416C31.2702 341.712 31.1177 341.032 30.8128 340.375C30.5078 339.718 30.1325 339.12 29.6868 338.581L33.0999 336.54C33.9209 337.478 34.5308 338.522 34.9296 339.671C35.3049 340.797 35.4926 341.9 35.4926 342.979ZM35.4926 326.169C35.4926 327.717 35.1877 328.972 34.5778 329.934C33.9444 330.895 33.0765 331.587 31.9739 332.01C30.8714 332.432 29.593 332.643 28.1386 332.643L19.3771 332.643L19.3771 335.423L15.5418 335.423L15.2954 332.362L9.98225 331.763L9.98225 327.506L15.2954 327.506L15.2954 322.615L19.3771 322.615L19.3771 327.506L28.1034 327.506C29.2294 327.506 30.0621 327.271 30.6017 326.802C31.1412 326.333 31.411 325.664 31.411 324.796C31.411 324.468 31.364 324.128 31.2702 323.776C31.1764 323.424 31.0825 323.119 30.9887 322.861L34.7537 321.981C34.9179 322.521 35.0821 323.143 35.2463 323.846C35.4105 324.527 35.4926 325.301 35.4926 326.169ZM35 318.572L15.2954 318.572L15.2954 313.4L35 313.4L35 318.572ZM12.0935 315.968C12.0935 316.883 11.8471 317.61 11.3545 318.15C10.8385 318.689 10.1465 318.959 9.27852 318.959C8.43404 318.959 7.75376 318.689 7.23769 318.15C6.72162 317.61 6.46358 316.883 6.46358 315.968C6.46358 315.1 6.72162 314.385 7.23769 313.822C7.75376 313.259 8.43404 312.977 9.27852 312.977C10.1465 312.977 10.8385 313.259 11.3545 313.822C11.8471 314.385 12.0935 315.1 12.0935 315.968ZM35.4926 299.652C35.4926 301.294 35.0821 302.842 34.2611 304.296C33.4401 305.727 32.2672 306.888 30.7424 307.78C29.1942 308.671 27.3293 309.117 25.1477 309.117C22.9661 309.117 21.113 308.671 19.5882 307.78C18.04 306.888 16.8554 305.727 16.0344 304.296C15.2133 302.842 14.8028 301.294 14.8028 299.652C14.8028 298.408 15.0374 297.224 15.5066 296.098C15.9757 294.972 16.656 293.963 17.5474 293.072C18.4153 292.18 19.4944 291.477 20.7846 290.961C22.0513 290.444 23.5057 290.186 25.1477 290.186C27.3293 290.186 29.1942 290.632 30.7424 291.524C32.2672 292.415 33.4401 293.588 34.2611 295.042C35.0821 296.473 35.4926 298.01 35.4926 299.652ZM31.2702 299.652C31.2702 298.76 31.0239 298.01 30.5313 297.4C30.0152 296.766 29.2998 296.297 28.3849 295.992C27.47 295.664 26.391 295.5 25.1477 295.5C23.9045 295.5 22.8254 295.664 21.9105 295.992C20.9957 296.297 20.292 296.766 19.7993 297.4C19.2833 298.01 19.0252 298.76 19.0252 299.652C19.0252 300.543 19.2833 301.305 19.7993 301.939C20.292 302.549 20.9957 303.018 21.9105 303.346C22.8254 303.651 23.9045 303.804 25.1477 303.804C26.391 303.804 27.47 303.651 28.3849 303.346C29.2998 303.018 30.0152 302.549 30.5313 301.939C31.0239 301.305 31.2702 300.543 31.2702 299.652ZM35 285.859L15.2954 285.859L15.2954 281.637L17.8993 281.25L17.8993 281.144C17.0548 280.276 16.3276 279.326 15.7177 278.294C15.1078 277.262 14.8028 276.077 14.8028 274.74C14.8028 272.606 15.5066 271.057 16.914 270.096C18.298 269.134 20.2333 268.653 22.7198 268.653L35 268.653L35 273.825L23.3532 273.825C21.8284 273.825 20.7611 274.048 20.1512 274.494C19.5413 274.916 19.2364 275.62 19.2364 276.605C19.2364 277.403 19.424 278.107 19.7993 278.716C20.1747 279.303 20.7259 279.96 21.4531 280.687L35 280.687L35 285.859Z" fill="#FACD01"/>
</svg>
