<svg width="56" height="528" viewBox="0 0 56 528" fill="none" xmlns="http://www.w3.org/2000/svg">
<path d="M53 525L53 3" stroke="#FACD01" stroke-width="5" stroke-linecap="round"/>
<path d="M7.00002 475.195C7.00007 493.962 25.7863 501 34.3935 501C45.1525 501 44.9999 492.903 44.9999 491.541C44.9999 490.178 44.9999 417.984 44.9999 416.697C44.9999 415.411 43.55 403 36.0722 403C26.0762 403 7.00002 414.2 7.00002 426.308C7.00002 438.416 6.99997 452.265 7.00002 475.195Z" fill="#FACD01"/>
<path d="M35.4926 384.4C35.4926 385.549 35.2463 386.57 34.7537 387.461C34.2376 388.329 33.5339 389.009 32.6425 389.502C31.7511 389.971 30.7424 390.205 29.6164 390.205C27.5287 390.205 25.9101 389.302 24.7607 387.496C23.5878 385.69 22.7902 382.816 22.368 378.875C21.7112 378.899 21.1364 379.016 20.6438 379.227C20.1278 379.438 19.7172 379.79 19.4123 380.283C19.1073 380.752 18.9549 381.397 18.9549 382.218C18.9549 383.133 19.1308 384.036 19.4827 384.927C19.8345 385.819 20.292 386.722 20.8549 387.637L17.4067 389.467C16.914 388.692 16.4801 387.871 16.1047 387.003C15.7294 386.136 15.4245 385.221 15.1899 384.259C14.9319 383.297 14.8028 382.3 14.8028 381.268C14.8028 379.603 15.1312 378.207 15.7881 377.081C16.4449 375.955 17.4184 375.11 18.7086 374.547C19.9987 373.984 21.5939 373.703 23.4939 373.703L35 373.703L35 377.925L32.8888 378.277L32.8888 378.453C33.6394 379.298 34.2611 380.212 34.7537 381.198C35.2463 382.183 35.4926 383.25 35.4926 384.4ZM31.4461 382.676C31.4461 381.948 31.2819 381.292 30.9535 380.705C30.6017 380.095 30.1208 379.485 29.5109 378.875L25.57 378.875C25.7576 380.47 26.0274 381.737 26.3793 382.676C26.7311 383.614 27.1534 384.282 27.646 384.681C28.1151 385.08 28.6429 385.279 29.2294 385.279C30.0035 385.279 30.5665 385.045 30.9183 384.576C31.2702 384.083 31.4461 383.45 31.4461 382.676ZM42.5651 368.431L15.2954 368.431L15.2954 364.209L17.3363 363.822L17.3363 363.716C16.6325 362.895 16.0344 361.992 15.5418 361.007C15.0491 359.998 14.8028 358.966 14.8028 357.91C14.8028 356.292 15.2251 354.908 16.0696 353.758C16.8906 352.609 18.0517 351.729 19.553 351.119C21.0309 350.486 22.7902 350.169 24.831 350.169C27.083 350.169 29.0065 350.568 30.6017 351.366C32.1968 352.163 33.4166 353.207 34.2611 354.497C35.0821 355.764 35.4926 357.113 35.4926 358.544C35.4926 359.388 35.305 360.233 34.9296 361.077C34.5543 361.898 34.0265 362.684 33.3462 363.435L36.5482 363.259L42.5651 363.259L42.5651 368.431ZM31.235 359.67C31.235 358.896 31.0122 358.192 30.5665 357.559C30.0973 356.925 29.3936 356.421 28.4553 356.046C27.517 355.67 26.3323 355.483 24.9014 355.483C23.6582 355.483 22.6026 355.623 21.7346 355.905C20.8432 356.186 20.1747 356.609 19.729 357.171C19.2833 357.734 19.0604 358.473 19.0604 359.388C19.0604 360.045 19.2246 360.69 19.553 361.324C19.8814 361.933 20.3858 362.579 21.0661 363.259L29.7572 363.259C30.3202 362.625 30.7072 362.004 30.9183 361.394C31.1295 360.784 31.235 360.209 31.235 359.67ZM42.5651 345.787L15.2954 345.787L15.2954 341.564L17.3363 341.177L17.3363 341.072C16.6325 340.251 16.0344 339.348 15.5418 338.362C15.0491 337.354 14.8028 336.321 14.8028 335.266C14.8028 333.647 15.2251 332.263 16.0696 331.114C16.8906 329.964 18.0517 329.085 19.553 328.475C21.0309 327.841 22.7902 327.525 24.831 327.525C27.083 327.525 29.0065 327.924 30.6017 328.721C32.1968 329.519 33.4166 330.563 34.2611 331.853C35.0821 333.119 35.4926 334.468 35.4926 335.899C35.4926 336.744 35.3049 337.588 34.9296 338.433C34.5543 339.254 34.0265 340.04 33.3462 340.79L36.5482 340.614L42.5651 340.614L42.5651 345.787ZM31.235 337.025C31.235 336.251 31.0122 335.547 30.5665 334.914C30.0973 334.281 29.3936 333.776 28.4553 333.401C27.517 333.026 26.3323 332.838 24.9014 332.838C23.6582 332.838 22.6026 332.979 21.7346 333.26C20.8432 333.542 20.1747 333.964 19.729 334.527C19.2833 335.09 19.0604 335.829 19.0604 336.744C19.0604 337.401 19.2246 338.046 19.553 338.679C19.8814 339.289 20.3858 339.934 21.0661 340.614L29.7572 340.614C30.3202 339.981 30.7072 339.359 30.9183 338.749C31.1295 338.139 31.235 337.565 31.235 337.025Z" fill="#FACD01"/>
</svg>
