<?xml version="1.0" encoding="UTF-8"?><svg id="Layer_2" xmlns="http://www.w3.org/2000/svg" viewBox="0 0 375.15 511"><defs><style>.cls-1{fill:#fff;}.cls-2{fill:#a70078;}</style></defs><g id="Layer_1-2"><rect class="cls-1" width="375.15" height="511" rx="31.35" ry="31.35"/><path d="m128.6,456.55h-13.21l-3.04,10.23h-5.05l12.6-39.1h4.22l12.62,39.1h-5.05l-3.09-10.23Zm-11.92-4.22h10.66l-5.34-17.78-5.32,17.78Z"/><path d="m147.67,454.45l.51,4.38.78-3.87,6.26-27.29h4.11l6.07,27.29.78,3.97.56-4.51,4.78-26.75h4.92l-7.79,39.1h-4.43l-6.53-28.49-.4-2.31-.4,2.31-6.77,28.49h-4.46l-7.76-39.1h4.92l4.86,26.78Z"/><path d="m199.18,456.55h-13.21l-3.04,10.23h-5.05l12.6-39.1h4.22l12.62,39.1h-5.05l-3.09-10.23Zm-11.92-4.22h10.66l-5.34-17.78-5.32,17.78Z"/><path d="m224.45,450.96h-6.88v15.82h-4.94v-39.1h10.96c3.83,0,6.73,1,8.7,2.99,1.97,2,2.95,4.92,2.95,8.77,0,2.42-.53,4.53-1.6,6.32-1.06,1.8-2.57,3.16-4.53,4.07l7.57,16.62v.32h-5.29l-6.96-15.82Zm-6.88-4.22h5.96c2.06,0,3.7-.66,4.93-1.99,1.23-1.33,1.84-3.1,1.84-5.33,0-5.02-2.27-7.53-6.82-7.53h-5.91v14.85Z"/><path d="m241.82,466.78v-39.1h9.32c4.57,0,8.11,1.43,10.63,4.28,2.53,2.86,3.79,6.87,3.79,12.04v6.55c0,5.17-1.28,9.17-3.84,11.99-2.56,2.82-6.28,4.23-11.15,4.23h-8.75Zm4.91-34.88v30.67h3.95c3.46,0,5.98-.99,7.57-2.97,1.59-1.98,2.41-4.91,2.44-8.8v-6.93c0-4.12-.79-7.15-2.38-9.07-1.58-1.93-3.98-2.89-7.18-2.89h-4.4Z"/><path d="m68.04,385.69l-3.12,3.92v11.17h-7.9v-39.1h7.9v17.05l2.5-4.22,7.28-12.84h9.67l-11.2,17.19,11.39,21.91h-9.37l-7.14-15.09Z"/><path d="m95.7,400.78h-7.89v-39.1h7.89v39.1Z"/><path d="m102.34,400.78v-39.1h10.34c4.57,0,8.21,1.45,10.92,4.35,2.71,2.9,4.09,6.88,4.15,11.92v6.34c0,5.14-1.36,9.17-4.07,12.1-2.71,2.93-6.45,4.39-11.21,4.39h-10.12Zm7.9-32.52v25.97h2.36c2.63,0,4.48-.69,5.56-2.08s1.64-3.78,1.69-7.18v-6.79c0-3.65-.51-6.2-1.53-7.64-1.02-1.44-2.76-2.2-5.21-2.27h-2.87Z"/><path d="m149.92,390.52c0-1.59-.41-2.8-1.22-3.61-.81-.81-2.3-1.66-4.45-2.54-3.92-1.49-6.74-3.23-8.46-5.22s-2.58-4.36-2.58-7.08c0-3.29,1.17-5.94,3.5-7.94,2.34-2,5.3-2.99,8.9-2.99,2.4,0,4.54.51,6.42,1.52,1.88,1.01,3.33,2.44,4.34,4.28,1.01,1.84,1.52,3.94,1.52,6.28h-7.87c0-1.83-.39-3.22-1.17-4.18-.78-.96-1.9-1.44-3.37-1.44-1.38,0-2.45.41-3.22,1.22-.77.81-1.16,1.91-1.16,3.29,0,1.07.43,2.04,1.29,2.91.86.87,2.38,1.77,4.57,2.7,3.81,1.38,6.58,3.07,8.31,5.08,1.73,2.01,2.59,4.56,2.59,7.65,0,3.4-1.08,6.06-3.25,7.98-2.17,1.92-5.11,2.87-8.84,2.87-2.52,0-4.83-.52-6.9-1.56-2.08-1.04-3.7-2.52-4.87-4.46s-1.76-4.22-1.76-6.85h7.92c0,2.26.44,3.89,1.32,4.91s2.31,1.53,4.3,1.53c2.76,0,4.14-1.46,4.14-4.38Z"/><path d="m188.65,361.68h7.9v27.07c0,3.8-1.06,6.84-3.17,9.13-2.11,2.29-4.83,3.44-8.16,3.44-3.58,0-6.37-1.07-8.35-3.2-1.99-2.13-2.98-5.09-2.98-8.89h7.92c0,3.69,1.14,5.53,3.41,5.53s3.44-2.13,3.44-6.39v-26.69Z"/><path d="m228.18,361.68v27.07c-.04,4.06-1.15,7.17-3.36,9.33-2.2,2.16-5.36,3.24-9.48,3.24s-7.39-1.09-9.6-3.28-3.32-5.34-3.32-9.48v-26.88h7.95v26.91c0,2.22.36,3.8,1.07,4.75.71.95,2.01,1.42,3.89,1.42s3.17-.47,3.87-1.41c.7-.94,1.06-2.48,1.07-4.63v-27.04h7.9Z"/><path d="m234.17,400.78v-39.1h10.34c4.57,0,8.2,1.45,10.92,4.35,2.71,2.9,4.09,6.88,4.15,11.92v6.34c0,5.14-1.36,9.17-4.07,12.1-2.71,2.93-6.45,4.39-11.21,4.39h-10.12Zm7.9-32.52v25.97h2.36c2.63,0,4.48-.69,5.56-2.08s1.64-3.78,1.69-7.18v-6.79c0-3.65-.51-6.2-1.53-7.64-1.02-1.44-2.76-2.2-5.21-2.27h-2.87Z"/><path d="m291.83,396.35c-1.52,1.65-3.39,2.89-5.6,3.72-2.21.83-4.63,1.25-7.27,1.25-4.49,0-7.98-1.39-10.47-4.18-2.49-2.78-3.77-6.83-3.84-12.15v-7.04c0-5.39,1.18-9.54,3.53-12.45,2.35-2.91,5.79-4.36,10.3-4.36,4.24,0,7.44,1.05,9.6,3.14,2.16,2.09,3.41,5.38,3.75,9.86h-7.68c-.21-2.49-.73-4.18-1.56-5.09s-2.11-1.36-3.87-1.36c-2.13,0-3.68.78-4.65,2.34-.97,1.56-1.47,4.04-1.5,7.44v7.09c0,3.56.53,6.15,1.6,7.77,1.06,1.62,2.81,2.43,5.25,2.43,1.56,0,2.82-.31,3.79-.94l.7-.48v-7.17h-5.53v-5.96h13.45v16.14Z"/><path d="m317.61,383.86h-12.3v10.37h14.56v6.55h-22.45v-39.1h22.4v6.58h-14.5v9.24h12.3v6.36Z"/><path class="cls-2" d="m356.47,158.46c-14.67-55.02-101.98-80.03-195.05-55.86C68.4,126.77,4.85,190.99,19.52,246c14.67,55.02,101.98,80.03,194.99,55.86,93.08-24.17,156.57-88.39,141.96-143.4m-204.13,58.62s-.6,5.41-2.77,8.24-9.26,12.27-29.1,12.27c-17.26,0-25.31-8.66-26.52-9.98-1.2-1.38-4.69-6.49-4.69-12.15v-44.43s-.18-5.71,6.55-5.71l6.43.06v21.59s6.85-3.73,16.11-4.27c9.2-.48,18.34,2.34,23.03,5.17,4.87,2.95,7.4,5.83,9.02,8.6,1.62,2.71,1.92,5.47,1.92,6.49v14.13Zm60.25,16.29c-6.61,3.37-12.15,3.79-16.78,4.09-6.25.42-13.41-.24-17.38-1.62-3.91-1.38-9.26-3.97-11.78-7.52-2.53-3.61-3.49-7.52-3.49-10.88s.18-17.44.18-17.44c0,0,.72-8.78,9.2-13.17,7.34-3.85,14.37-4.39,20.26-4.39s13.89.84,19.42,4.15c4.27,2.59,8.66,6.37,8.78,12.75.12,6.31-2.95,11.12-10.82,14.31-5.17,2.1-9.68,2.22-11.6,2.16-1.92-.12-19.18,0-19.18,0,0,0-1.62.12-3.01-1.02v5.41s.06,2.71,3.49,4.51c3.37,1.8,8.48,3.37,15.09,2.83,6.61-.54,10.28-2.47,12.03-3.61s3.31-2.89,6.43-1.86l8.12,3.01c-.06,0-3.01,5.29-8.96,8.3m41.31-39.08h-8.3v25.31s-.54,7.46,9.2,7.7v4.81s.36,4.27-5.77,4.45c-4.15.12-7.64-1.8-9.62-3.19-1.38-.96-6.79-5.11-6.85-14.55v-47.92s-.24-5.71,6.85-5.71l6.13.06v18.64h15.51v5.05c0,.06.48,5.35-7.16,5.35m38.6,0h-8.3v25.31s-.54,7.46,9.2,7.7v4.81s.36,4.27-5.83,4.45c-4.15.12-7.64-1.8-9.62-3.19-1.32-.96-6.73-5.11-6.85-14.55v-47.92s-.24-5.71,6.85-5.71l6.19.06v18.64h15.51v5.05c-.06.06.48,5.35-7.16,5.35"/><path class="cls-2" d="m132.5,195.32c3.43,1.86,4.51,3.07,5.17,4.03.72.96,1.56,2.41,1.56,3.85v14.01s-.18,2.04-1.8,3.85-6.13,6.25-16.11,6.25c-9.02,0-13.89-3.19-15.75-4.87-1.92-1.68-3.13-4.21-3.13-5.65s.12-14.13.12-14.13c0,0,.96-4.69,7.03-7.52,5.41-2.59,8.96-2.41,11.36-2.41,2.34,0,7.82.6,11.54,2.59m43.89,10.28l22.61.12c6.07,0,8.84-3.37,9.08-6.19.24-2.83-3.31-5.05-6.31-5.89-3.01-.84-5.71-1.14-9.68-1.02s-9.86,1.38-12.57,3.07c-3.43,2.16-3.13,4.81-3.13,4.81v5.11h0Z"/></g></svg>