<svg width="220" height="348" viewBox="0 0 220 348" fill="none" xmlns="http://www.w3.org/2000/svg">
<path d="M7 7C7 17.3265 14.454 26.9875 23.0639 34.2553C48.6673 55.8677 73.1822 77.638 103.294 95.2553C144.825 119.553 189.514 142.531 203.068 185.241C210.538 208.778 214.411 231.57 212.528 255.903C211.584 268.106 194.848 283.521 183.346 290.225C164.704 301.088 142.031 304.017 119.715 306.232C103.37 307.853 86.9208 309.006 70.5415 310.414C66.2374 310.784 62.6933 312 58.4044 312M70.5715 273.682C69.483 284.568 53.6924 294.294 45.0043 298.894C26.3078 308.792 62.1655 333.988 68.9736 340.796" stroke="#FACD01" stroke-width="13" stroke-linecap="round"/>
</svg>
