<svg width="49" height="48" viewBox="0 0 49 48" fill="none" xmlns="http://www.w3.org/2000/svg">
<path d="M42.5769 4.2976C41.1491 4.05167 39.7033 3.92507 38.2545 3.91914C33.3113 3.91508 28.4712 5.33254 24.3111 8.00254C20.1404 5.3676 15.301 3.98493 10.3678 4.01873C8.91897 4.02467 7.47316 4.15126 6.04536 4.39719C5.57767 4.47782 5.15414 4.72279 4.85104 5.08797C4.54793 5.45316 4.38518 5.91456 4.39208 6.3891V30.292C4.38781 30.5846 4.4481 30.8747 4.56866 31.1414C4.68922 31.4081 4.86708 31.645 5.08959 31.8352C5.3121 32.0254 5.57379 32.1642 5.85604 32.2417C6.13829 32.3193 6.43416 32.3337 6.72261 32.2839C9.57704 31.7897 12.5015 31.8717 15.3238 32.525C18.146 33.1784 20.809 34.39 23.1558 36.0884L23.3949 36.2278H23.614C23.8349 36.3199 24.0718 36.3673 24.3111 36.3673C24.5504 36.3673 24.7874 36.3199 25.0083 36.2278H25.2274L25.4664 36.0884C27.7969 34.3521 30.4522 33.1012 33.275 32.4101C36.0978 31.7189 39.0306 31.6015 41.8997 32.0648C42.1881 32.1146 42.484 32.1002 42.7662 32.0226C43.0485 31.9451 43.3102 31.8063 43.5327 31.6161C43.7552 31.4259 43.933 31.189 44.0536 30.9223C44.1742 30.6556 44.2345 30.3655 44.2302 30.0729V6.16999C44.2095 5.71614 44.0342 5.28302 43.7335 4.94245C43.4328 4.60189 43.0247 4.37436 42.5769 4.2976ZM22.3192 30.77C18.634 28.8313 14.5319 27.8194 10.3678 27.822C9.71046 27.822 9.05313 27.822 8.37589 27.822V7.90295C9.0393 7.86471 9.70437 7.86471 10.3678 7.90295C14.6173 7.89825 18.7741 9.14528 22.3192 11.4884V30.77ZM40.2464 27.9017C39.5691 27.9017 38.9118 27.9017 38.2545 27.9017C34.0904 27.8991 29.9883 28.911 26.303 30.8497V11.4884C29.8482 9.14528 34.005 7.89825 38.2545 7.90295C38.9179 7.86471 39.583 7.86471 40.2464 7.90295V27.9017ZM42.5769 36.1681C41.1491 35.9222 39.7033 35.7956 38.2545 35.7896C33.3113 35.7856 28.4712 37.203 24.3111 39.873C20.1511 37.203 15.311 35.7856 10.3678 35.7896C8.91897 35.7956 7.47316 35.9222 6.04536 36.1681C5.78607 36.2092 5.53747 36.3012 5.31385 36.4388C5.09024 36.5764 4.89603 36.7568 4.74239 36.9697C4.58874 37.1825 4.47869 37.4237 4.41858 37.6792C4.35846 37.9348 4.34945 38.1997 4.39208 38.4588C4.4933 38.976 4.79542 39.4321 5.23224 39.7271C5.66907 40.022 6.20499 40.1318 6.72261 40.0324C9.57704 39.5382 12.5015 39.6202 15.3238 40.2736C18.146 40.927 20.809 42.1385 23.1558 43.8369C23.4932 44.0771 23.897 44.2062 24.3111 44.2062C24.7253 44.2062 25.1291 44.0771 25.4664 43.8369C27.8133 42.1385 30.4762 40.927 33.2985 40.2736C36.1207 39.6202 39.0452 39.5382 41.8997 40.0324C42.4173 40.1318 42.9532 40.022 43.39 39.7271C43.8268 39.4321 44.129 38.976 44.2302 38.4588C44.2728 38.1997 44.2638 37.9348 44.2037 37.6792C44.1436 37.4237 44.0335 37.1825 43.8799 36.9697C43.7262 36.7568 43.532 36.5764 43.3084 36.4388C43.0848 36.3012 42.8362 36.2092 42.5769 36.1681Z" fill="white"/>
</svg>
