<svg width="24" height="83" viewBox="0 0 24 83" fill="none" xmlns="http://www.w3.org/2000/svg">
<path d="M13.5 2C13.5 1.17157 12.8284 0.5 12 0.5C11.1716 0.5 10.5 1.17157 10.5 2L13.5 2ZM10.9393 82.0607C11.5251 82.6464 12.4749 82.6464 13.0607 82.0607L22.6066 72.5147C23.1924 71.9289 23.1924 70.9792 22.6066 70.3934C22.0208 69.8076 21.0711 69.8076 20.4853 70.3934L12 78.8787L3.51471 70.3934C2.92893 69.8076 1.97918 69.8076 1.39339 70.3934C0.807607 70.9792 0.807607 71.9289 1.39339 72.5147L10.9393 82.0607ZM10.5 2L10.5 81L13.5 81L13.5 2L10.5 2Z" fill="white"/>
</svg>
