<svg width="53" height="54" viewBox="0 0 53 54" fill="none" xmlns="http://www.w3.org/2000/svg">
<path d="M26.4874 16.3335C25.9019 16.3335 25.3405 16.566 24.9266 16.9799C24.5126 17.3939 24.2801 17.9553 24.2801 18.5407V27.3698C24.2801 27.9553 24.5126 28.5167 24.9266 28.9306C25.3405 29.3446 25.9019 29.5771 26.4874 29.5771C27.0728 29.5771 27.6342 29.3446 28.0481 28.9306C28.4621 28.5167 28.6946 27.9553 28.6946 27.3698V18.5407C28.6946 17.9553 28.4621 17.3939 28.0481 16.9799C27.6342 16.566 27.0728 16.3335 26.4874 16.3335ZM28.518 35.3602C28.4697 35.2195 28.4029 35.0859 28.3194 34.9629L28.0545 34.6318C27.7441 34.3255 27.35 34.118 26.9218 34.0355C26.4936 33.9531 26.0506 33.9992 25.6486 34.1683C25.3811 34.28 25.1347 34.4368 24.9202 34.6318C24.7156 34.838 24.5538 35.0826 24.4439 35.3516C24.3341 35.6205 24.2784 35.9085 24.2801 36.199C24.2836 36.4874 24.3436 36.7724 24.4567 37.0377C24.5558 37.3116 24.7139 37.5604 24.9199 37.7664C25.1259 37.9724 25.3747 38.1305 25.6486 38.2297C25.9128 38.3464 26.1985 38.4068 26.4874 38.4068C26.7762 38.4068 27.0619 38.3464 27.3261 38.2297C27.6 38.1305 27.8488 37.9724 28.0548 37.7664C28.2608 37.5604 28.4189 37.3116 28.518 37.0377C28.6312 36.7724 28.6911 36.4874 28.6946 36.199C28.7055 36.052 28.7055 35.9045 28.6946 35.7575C28.6566 35.6168 28.5971 35.4827 28.518 35.3602ZM26.4874 5.29706C22.1218 5.29706 17.8542 6.5916 14.2244 9.01699C10.5945 11.4424 7.76539 14.8897 6.09475 18.923C4.42411 22.9562 3.987 27.3943 4.83868 31.676C5.69037 35.9577 7.7926 39.8907 10.8795 42.9777C13.9665 46.0646 17.8995 48.1668 22.1812 49.0185C26.4629 49.8702 30.901 49.4331 34.9342 47.7624C38.9675 46.0918 42.4148 43.2627 44.8402 39.6328C47.2656 36.003 48.5601 31.7354 48.5601 27.3698C48.5601 24.4712 47.9892 21.601 46.8799 18.923C45.7707 16.245 44.1448 13.8117 42.0952 11.762C40.0455 9.71238 37.6122 8.08651 34.9342 6.97725C32.2562 5.86799 29.386 5.29706 26.4874 5.29706ZM26.4874 45.0281C22.9949 45.0281 19.5808 43.9924 16.677 42.0521C13.7731 40.1118 11.5098 37.354 10.1733 34.1274C8.83676 30.9007 8.48707 27.3503 9.16842 23.9249C9.84976 20.4995 11.5315 17.3531 14.0011 14.8836C16.4706 12.414 19.617 10.7323 23.0424 10.0509C26.4678 9.36957 30.0182 9.71926 33.2449 11.0558C36.4715 12.3923 39.2293 14.6556 41.1696 17.5595C43.1099 20.4633 44.1456 23.8774 44.1456 27.3698C44.1456 32.0531 42.2852 36.5445 38.9736 39.8561C35.662 43.1677 31.1706 45.0281 26.4874 45.0281Z" fill="white"/>
</svg>
