<svg width="54" height="54" viewBox="0 0 54 54" fill="none" xmlns="http://www.w3.org/2000/svg">
<path d="M25.8008 34.6318C25.7059 34.7367 25.6174 34.8473 25.5359 34.9629C25.4524 35.0859 25.3856 35.2195 25.3373 35.3602C25.2736 35.4853 25.229 35.6192 25.2048 35.7575C25.194 35.9045 25.194 36.052 25.2048 36.199C25.1974 36.4885 25.2579 36.7758 25.3814 37.0377C25.4806 37.3116 25.6387 37.5604 25.8447 37.7664C26.0507 37.9724 26.2994 38.1305 26.5734 38.2297C26.8376 38.3464 27.1233 38.4068 27.4121 38.4068C27.701 38.4068 27.9867 38.3464 28.2509 38.2297C28.5248 38.1305 28.7736 37.9724 28.9795 37.7664C29.1855 37.5604 29.3437 37.3116 29.4428 37.0377C29.5408 36.7693 29.5858 36.4845 29.5753 36.199C29.5769 35.9085 29.5213 35.6205 29.4114 35.3516C29.3016 35.0826 29.1397 34.838 28.9351 34.6318C28.7299 34.4249 28.4858 34.2607 28.2168 34.1486C27.9479 34.0366 27.6594 33.9789 27.368 33.9789C27.0766 33.9789 26.7881 34.0366 26.5191 34.1486C26.2501 34.2607 26.006 34.4249 25.8008 34.6318ZM27.368 5.29706C23.0024 5.29706 18.7348 6.5916 15.105 9.01699C11.4751 11.4424 8.64601 14.8897 6.97537 18.923C5.30474 22.9562 4.86762 27.3943 5.71931 31.676C6.57099 35.9577 8.67322 39.8907 11.7602 42.9777C14.8471 46.0646 18.7801 48.1668 23.0618 49.0185C27.3435 49.8702 31.7816 49.4331 35.8149 47.7624C39.8481 46.0918 43.2954 43.2627 45.7208 39.6328C48.1462 36.003 49.4408 31.7354 49.4408 27.3698C49.4408 24.4712 48.8698 21.601 47.7606 18.923C46.6513 16.245 45.0254 13.8117 42.9758 11.762C40.9261 9.71238 38.4929 8.08651 35.8149 6.97725C33.1369 5.86799 30.2666 5.29706 27.368 5.29706ZM27.368 45.0281C23.8755 45.0281 20.4615 43.9924 17.5576 42.0521C14.6537 40.1118 12.3904 37.354 11.0539 34.1274C9.71739 30.9007 9.36769 27.3503 10.049 23.9249C10.7304 20.4995 12.4122 17.3531 14.8817 14.8836C17.3513 12.414 20.4977 10.7323 23.923 10.0509C27.3484 9.36957 30.8989 9.71926 34.1255 11.0558C37.3521 12.3923 40.1099 14.6556 42.0503 17.5595C43.9906 20.4633 45.0262 23.8774 45.0262 27.3698C45.0262 32.0531 43.1658 36.5445 39.8542 39.8561C36.5427 43.1677 32.0512 45.0281 27.368 45.0281ZM27.368 16.3335C26.2049 16.3327 25.0621 16.6383 24.0546 17.2195C23.0472 17.8008 22.2106 18.6371 21.629 19.6444C21.4693 19.8956 21.3621 20.1765 21.3138 20.4703C21.2655 20.764 21.2771 21.0645 21.3479 21.3537C21.4187 21.6428 21.5473 21.9146 21.7259 22.1528C21.9045 22.391 22.1294 22.5905 22.3872 22.7395C22.6449 22.8885 22.9301 22.9838 23.2256 23.0197C23.5212 23.0556 23.8209 23.0313 24.1068 22.9484C24.3927 22.8655 24.6589 22.7255 24.8893 22.5371C25.1197 22.3486 25.3097 22.1154 25.4476 21.8517C25.6421 21.5148 25.9221 21.2353 26.2594 21.0415C26.5966 20.8477 26.979 20.7465 27.368 20.748C27.9534 20.748 28.5148 20.9806 28.9288 21.3945C29.3427 21.8085 29.5753 22.3699 29.5753 22.9553C29.5753 23.5407 29.3427 24.1021 28.9288 24.5161C28.5148 24.93 27.9534 25.1626 27.368 25.1626C26.7826 25.1626 26.2211 25.3951 25.8072 25.8091C25.3932 26.223 25.1607 26.7844 25.1607 27.3698V29.5771C25.1607 30.1625 25.3932 30.724 25.8072 31.1379C26.2211 31.5519 26.7826 31.7844 27.368 31.7844C27.9534 31.7844 28.5148 31.5519 28.9288 31.1379C29.3427 30.724 29.5753 30.1625 29.5753 29.5771V29.1798C31.0351 28.6501 32.2623 27.6242 33.0424 26.2814C33.8225 24.9386 34.1058 23.3643 33.8428 21.8337C33.5798 20.3032 32.7873 18.9138 31.6037 17.9084C30.4202 16.903 28.9209 16.3455 27.368 16.3335Z" fill="white"/>
</svg>
