<svg width="56" height="14" viewBox="0 0 56 14" fill="none" xmlns="http://www.w3.org/2000/svg">
<path d="M3.2364 14C2.7956 14 2.3954 13.8898 2.0358 13.6694C1.6762 13.449 1.3862 13.159 1.1658 12.7994C0.9454 12.4398 0.8352 12.0396 0.8352 11.5988V11.216H3.1146V11.5118C3.1146 11.5698 3.132 11.622 3.1668 11.6684C3.2132 11.7032 3.2654 11.7206 3.3234 11.7206H8.5956C8.6536 11.7206 8.7 11.7032 8.7348 11.6684C8.7812 11.622 8.8044 11.5698 8.8044 11.5118V10.3112C8.8044 10.2532 8.7812 10.2068 8.7348 10.172C8.7 10.1256 8.6536 10.1024 8.5956 10.1024H3.2364C2.7956 10.1024 2.3954 9.9922 2.0358 9.7718C1.6762 9.5514 1.3862 9.2614 1.1658 8.9018C0.9454 8.5422 0.8352 8.142 0.8352 7.7012V6.3092C0.8352 5.8684 0.9454 5.4682 1.1658 5.1086C1.3862 4.749 1.6762 4.459 2.0358 4.2386C2.3954 4.0182 2.7956 3.908 3.2364 3.908H8.6826C9.135 3.908 9.541 4.0182 9.9006 4.2386C10.2602 4.459 10.5502 4.749 10.7706 5.1086C10.991 5.4682 11.1012 5.8684 11.1012 6.3092V6.692H8.8044V6.3962C8.8044 6.3382 8.7812 6.2918 8.7348 6.257C8.7 6.2106 8.6536 6.1874 8.5956 6.1874H3.3234C3.2654 6.1874 3.2132 6.2106 3.1668 6.257C3.132 6.2918 3.1146 6.3382 3.1146 6.3962V7.5968C3.1146 7.6548 3.132 7.707 3.1668 7.7534C3.2132 7.7882 3.2654 7.8056 3.3234 7.8056H8.6826C9.135 7.8056 9.541 7.9158 9.9006 8.1362C10.2602 8.3566 10.5502 8.6466 10.7706 9.0062C10.991 9.3658 11.1012 9.766 11.1012 10.2068V11.5988C11.1012 12.0396 10.991 12.4398 10.7706 12.7994C10.5502 13.159 10.2602 13.449 9.9006 13.6694C9.541 13.8898 9.135 14 8.6826 14H3.2364ZM14.8773 14C14.4365 14 14.0363 13.8898 13.6767 13.6694C13.3171 13.449 13.0271 13.159 12.8067 12.7994C12.5863 12.4398 12.4761 12.0396 12.4761 11.5988V6.3092C12.4761 5.8684 12.5863 5.4682 12.8067 5.1086C13.0271 4.749 13.3171 4.459 13.6767 4.2386C14.0363 4.0182 14.4365 3.908 14.8773 3.908H22.7073V6.1874H14.9643C14.9063 6.1874 14.8541 6.2106 14.8077 6.257C14.7729 6.2918 14.7555 6.3382 14.7555 6.3962V11.5118C14.7555 11.5698 14.7729 11.622 14.8077 11.6684C14.8541 11.7032 14.9063 11.7206 14.9643 11.7206H22.7247V14H14.8773ZM24.473 14V6.3092C24.473 5.8684 24.5832 5.4682 24.8036 5.1086C25.024 4.749 25.314 4.459 25.6736 4.2386C26.0448 4.0182 26.445 3.908 26.8742 3.908H32.477V6.1874H26.9612C26.9032 6.1874 26.851 6.2106 26.8046 6.257C26.7698 6.2918 26.7524 6.3382 26.7524 6.3962V14H24.473ZM35.9816 14C35.5408 14 35.1406 13.8898 34.781 13.6694C34.4214 13.449 34.1314 13.159 33.911 12.7994C33.6906 12.4398 33.5804 12.0396 33.5804 11.5988V6.3092C33.5804 5.8684 33.6906 5.4682 33.911 5.1086C34.1314 4.749 34.4214 4.459 34.781 4.2386C35.1406 4.0182 35.5408 3.908 35.9816 3.908H41.4278C41.8686 3.908 42.2688 4.0182 42.6284 4.2386C42.9996 4.459 43.2896 4.749 43.4984 5.1086C43.7188 5.4682 43.829 5.8684 43.829 6.3092V11.5988C43.829 12.0396 43.7188 12.4398 43.4984 12.7994C43.2896 13.159 43.0054 13.449 42.6458 13.6694C42.2862 13.8898 41.8802 14 41.4278 14H35.9816ZM36.0686 11.7206H41.3408C41.3988 11.7206 41.4452 11.7032 41.48 11.6684C41.5264 11.622 41.5496 11.5698 41.5496 11.5118V6.3962C41.5496 6.3382 41.5264 6.2918 41.48 6.257C41.4452 6.2106 41.3988 6.1874 41.3408 6.1874H36.0686C36.0106 6.1874 35.9584 6.2106 35.912 6.257C35.8772 6.2918 35.8598 6.3382 35.8598 6.3962V11.5118C35.8598 11.5698 35.8772 11.622 35.912 11.6684C35.9584 11.7032 36.0106 11.7206 36.0686 11.7206ZM47.6216 14C47.1808 14 46.7806 13.8898 46.421 13.6694C46.0614 13.449 45.7714 13.159 45.551 12.7994C45.3306 12.4398 45.2204 12.0396 45.2204 11.5988V0.5846H47.5172V11.5118C47.5172 11.5698 47.5346 11.622 47.5694 11.6684C47.6158 11.7032 47.668 11.7206 47.726 11.7206H49.6574V14H47.6216ZM53.416 14C52.9752 14 52.575 13.8898 52.2154 13.6694C51.8558 13.449 51.5658 13.159 51.3454 12.7994C51.125 12.4398 51.0148 12.0396 51.0148 11.5988V0.5846H53.3116V11.5118C53.3116 11.5698 53.329 11.622 53.3638 11.6684C53.4102 11.7032 53.4624 11.7206 53.5204 11.7206H55.4518V14H53.416Z" fill="white"/>
</svg>
