<svg width="53" height="54" viewBox="0 0 53 54" fill="none" xmlns="http://www.w3.org/2000/svg">
<path d="M46.3621 36.199H15.4602C14.8748 36.199 14.3134 35.9664 13.8994 35.5525C13.4855 35.1385 13.2529 34.5771 13.2529 33.9917C13.2529 33.4063 13.4855 32.8448 13.8994 32.4309C14.3134 32.017 14.8748 31.7844 15.4602 31.7844H38.5042C39.9801 31.7845 41.4137 31.2915 42.5775 30.3837C43.7412 29.476 44.5683 28.2054 44.9274 26.7739L48.5694 12.4486C48.6521 12.1229 48.6593 11.7825 48.5904 11.4535C48.5215 11.1246 48.3785 10.8157 48.1721 10.5504C47.9574 10.2783 47.6817 10.0606 47.3673 9.91486C47.0528 9.76914 46.7085 9.69951 46.3621 9.71162H14.9305C14.4751 8.42356 13.6324 7.30789 12.5181 6.51755C11.4037 5.72721 10.0721 5.3009 8.70595 5.29706H6.63111C6.0457 5.29706 5.48427 5.52961 5.07033 5.94356C4.65638 6.3575 4.42383 6.91893 4.42383 7.50434C4.42383 8.08974 4.65638 8.65117 5.07033 9.06512C5.48427 9.47906 6.0457 9.71162 6.63111 9.71162H8.70595C9.21017 9.69693 9.70421 9.85538 10.1058 10.1606C10.5074 10.4658 10.7924 10.8994 10.9132 11.3891L11.0457 12.4486L14.8643 27.3698C13.108 27.4489 11.4551 28.2223 10.2692 29.52C9.08324 30.8178 8.46137 32.5334 8.5404 34.2897C8.61943 36.0459 9.39288 37.6988 10.6906 38.8847C11.9883 40.0707 13.704 40.6926 15.4602 40.6135H15.8575C15.4945 41.6137 15.3779 42.6866 15.5175 43.7415C15.6571 44.7963 16.0488 45.802 16.6595 46.6733C17.2702 47.5446 18.0818 48.256 19.0258 48.7471C19.9697 49.2382 21.018 49.4946 22.0821 49.4946C23.1461 49.4946 24.1944 49.2382 25.1384 48.7471C26.0823 48.256 26.8939 47.5446 27.5046 46.6733C28.1153 45.802 28.5071 44.7963 28.6467 43.7415C28.7863 42.6866 28.6696 41.6137 28.3066 40.6135H33.5158C33.1527 41.6137 33.0361 42.6866 33.1757 43.7415C33.3153 44.7963 33.707 45.802 34.3177 46.6733C34.9284 47.5446 35.7401 48.256 36.684 48.7471C37.6279 49.2382 38.6763 49.4946 39.7403 49.4946C40.8043 49.4946 41.8527 49.2382 42.7966 48.7471C43.7405 48.256 44.5522 47.5446 45.1629 46.6733C45.7736 45.802 46.1653 44.7963 46.3049 43.7415C46.4445 42.6866 46.3278 41.6137 45.9648 40.6135H46.3621C46.9475 40.6135 47.509 40.381 47.9229 39.967C48.3369 39.5531 48.5694 38.9916 48.5694 38.4062C48.5694 37.8208 48.3369 37.2594 47.9229 36.8455C47.509 36.4315 46.9475 36.199 46.3621 36.199ZM43.5368 14.1262L40.6453 25.6923C40.5244 26.1821 40.2395 26.6156 39.8379 26.9209C39.4363 27.2261 38.9422 27.3845 38.438 27.3698H19.3892L16.0783 14.1262H43.5368ZM22.0821 45.0281C21.6455 45.0281 21.2187 44.8986 20.8558 44.6561C20.4928 44.4135 20.2099 44.0688 20.0428 43.6655C19.8757 43.2622 19.832 42.8184 19.9172 42.3902C20.0024 41.962 20.2126 41.5687 20.5213 41.26C20.83 40.9513 21.2233 40.7411 21.6514 40.6559C22.0796 40.5708 22.5234 40.6145 22.9268 40.7815C23.3301 40.9486 23.6748 41.2315 23.9173 41.5945C24.1599 41.9575 24.2893 42.3842 24.2893 42.8208C24.2893 43.4062 24.0568 43.9676 23.6428 44.3816C23.2289 44.7955 22.6675 45.0281 22.0821 45.0281ZM39.7403 45.0281C39.3037 45.0281 38.877 44.8986 38.514 44.6561C38.151 44.4135 37.8681 44.0688 37.701 43.6655C37.534 43.2622 37.4903 42.8184 37.5754 42.3902C37.6606 41.962 37.8708 41.5687 38.1795 41.26C38.4882 40.9513 38.8815 40.7411 39.3097 40.6559C39.7378 40.5708 40.1817 40.6145 40.585 40.7815C40.9883 40.9486 41.333 41.2315 41.5756 41.5945C41.8181 41.9575 41.9476 42.3842 41.9476 42.8208C41.9476 43.4062 41.715 43.9676 41.3011 44.3816C40.8871 44.7955 40.3257 45.0281 39.7403 45.0281Z" fill="white"/>
</svg>
